# Blender v2.79 (sub 0) OBJ File: ''
# www.blender.org
mtllib models/glowSphere.mtl
o Sphere
v 0.000000 0.707107 -0.707107
v 0.000000 -0.382684 -0.923880
v 0.000000 -0.707107 -0.707107
v 0.000000 -0.923880 -0.382683
v 0.191342 0.923880 -0.331414
v 0.353553 0.707107 -0.612372
v 0.461940 0.382683 -0.800103
v 0.500000 -0.000000 -0.866025
v 0.461940 -0.382684 -0.800103
v 0.353553 -0.707107 -0.612372
v 0.191342 -0.923880 -0.331414
v -0.000000 1.000000 -0.000000
v 0.331413 0.923880 -0.191342
v 0.612372 0.707107 -0.353553
v 0.800103 0.382683 -0.461940
v 0.866025 -0.000000 -0.500000
v 0.800103 -0.382684 -0.461940
v 0.612372 -0.707107 -0.353553
v 0.331413 -0.923880 -0.191342
v 0.382683 0.923880 -0.000000
v 0.707107 0.707107 -0.000000
v 0.923879 0.382683 -0.000000
v 1.000000 -0.000000 -0.000000
v 0.923879 -0.382684 -0.000000
v 0.707107 -0.707107 -0.000000
v 0.382683 -0.923880 -0.000000
v 0.331413 0.923880 0.191341
v 0.612372 0.707107 0.353553
v 0.800103 0.382683 0.461940
v 0.866025 -0.000000 0.500000
v 0.800103 -0.382684 0.461940
v 0.612372 -0.707107 0.353553
v 0.331413 -0.923880 0.191342
v 0.191342 0.923880 0.331413
v 0.353553 0.707107 0.612372
v 0.461940 0.382683 0.800103
v 0.500000 -0.000000 0.866025
v 0.461940 -0.382684 0.800103
v 0.353553 -0.707107 0.612372
v 0.191342 -0.923880 0.331413
v -0.000000 0.923880 0.382683
v -0.000000 0.707107 0.707106
v -0.000000 0.382683 0.923879
v -0.000000 -0.000000 1.000000
v -0.000000 -0.382684 0.923879
v -0.000000 -0.707107 0.707106
v -0.000000 -0.923880 0.382683
v -0.191342 0.923880 0.331413
v -0.353553 0.707107 0.612372
v -0.461940 0.382683 0.800103
v -0.500000 -0.000000 0.866025
v -0.461940 -0.382684 0.800103
v -0.353553 -0.707107 0.612372
v -0.191342 -0.923880 0.331413
v -0.331413 0.923880 0.191341
v -0.612372 0.707107 0.353553
v -0.800103 0.382683 0.461940
v -0.866025 -0.000000 0.500000
v -0.800103 -0.382684 0.461940
v -0.612372 -0.707107 0.353553
v -0.331413 -0.923880 0.191341
v -0.382683 0.923880 -0.000000
v -0.707107 0.707107 -0.000000
v -0.923879 0.382683 -0.000000
v -1.000000 -0.000000 -0.000000
v -0.923879 -0.382684 -0.000000
v -0.707107 -0.707107 -0.000000
v -0.382683 -0.923880 -0.000000
v -0.331413 0.923880 -0.191342
v -0.612372 0.707107 -0.353554
v -0.800103 0.382683 -0.461940
v -0.866025 -0.000000 -0.500000
v -0.800103 -0.382684 -0.461940
v -0.612372 -0.707107 -0.353554
v -0.331413 -0.923880 -0.191342
v 0.000000 -1.000000 -0.000000
v -0.191342 0.923880 -0.331414
v -0.353553 0.707107 -0.612373
v -0.461940 0.382683 -0.800103
v -0.500000 -0.000000 -0.866025
v -0.461940 -0.382684 -0.800103
v -0.353553 -0.707107 -0.612373
v -0.191342 -0.923880 -0.331414
v 0.000000 0.923880 -0.382683
v 0.000000 0.382683 -0.923880
v 0.000000 -0.000000 -1.000000
vt 0.347656 0.511719
vt 0.187500 0.511719
vt 0.187500 0.429688
vt 0.835938 0.835938
vt 0.675781 0.835938
vt 0.675781 0.757812
vt 0.835938 0.757812
vt 0.511719 0.835938
vt 0.347656 0.835938
vt 0.347656 0.757812
vt 0.511719 0.757812
vt 0.187500 0.835938
vt 0.023438 0.835938
vt 0.023438 0.757812
vt 0.187500 0.757812
vt 1.000000 0.835938
vt 1.000000 0.757812
vt 0.347656 0.511719
vt 0.187500 0.511719
vt 0.187500 0.429688
vt 0.023438 0.675781
vt 0.187500 0.675781
vt 0.835938 0.675781
vt 1.000000 0.675781
vt 0.511719 0.675781
vt 0.675781 0.675781
vt 0.347656 0.675781
vt 0.347656 0.511719
vt 0.187500 0.429688
vt 0.187500 0.511719
vt 0.187500 0.429688
vt 0.835938 0.593750
vt 1.000000 0.593750
vt 0.511719 0.593750
vt 0.675781 0.593750
vt 0.187500 0.593750
vt 0.347656 0.593750
vt 0.347656 0.511719
vt 0.187500 0.429688
vt 0.187500 0.511719
vt 0.187500 0.429688
vt 0.023438 0.593750
vt 0.347656 0.511719
vt 0.187500 0.429688
vt 0.187500 0.511719
vt 0.187500 0.429688
vt 0.675781 0.511719
vt 0.835938 0.511719
vt 0.347656 0.511719
vt 0.511719 0.511719
vt 0.023438 0.511719
vt 0.187500 0.511719
vt 1.000000 0.511719
vt 0.675781 0.429688
vt 0.835938 0.429688
vt 0.347656 0.429688
vt 0.511719 0.429688
vt 0.023438 0.429688
vt 0.187500 0.429688
vt 1.000000 0.429688
vt 0.347656 0.511719
vt 0.187500 0.429688
vt 0.187500 0.511719
vt 0.187500 0.429688
vt 0.835938 0.351562
vt 1.000000 0.351562
vt 0.511719 0.351562
vt 0.675781 0.351562
vt 0.187500 0.351562
vt 0.347656 0.351562
vt 0.347656 0.511719
vt 0.187500 0.429688
vt 0.187500 0.511719
vt 0.187500 0.429688
vt 0.023438 0.351562
vt 0.511719 0.269531
vt 0.675781 0.269531
vt 0.187500 0.269531
vt 0.347656 0.269531
vt 0.347656 0.511719
vt 0.187500 0.429688
vt 0.187500 0.511719
vt 0.187500 0.429688
vt 0.835938 0.269531
vt 0.023438 0.269531
vt 1.000000 0.269531
vt 0.187500 0.511719
vt 0.187500 0.429688
vt 0.675781 0.187500
vt 0.835938 0.187500
vt 0.347656 0.187500
vt 0.511719 0.187500
vt 0.023438 0.187500
vt 0.187500 0.187500
vt 1.000000 0.187500
vt 0.347656 0.511719
vt 0.187500 0.429688
vt 0.347656 0.105469
vt 0.511719 0.105469
vt 0.023438 0.105469
vt 0.187500 0.105469
vt 0.835938 0.105469
vt 1.000000 0.105469
vt 0.675781 0.105469
vt 0.347656 0.511719
vt 0.187500 0.429688
vt 0.187500 0.511719
vt 0.187500 0.429688
vt 0.835938 0.023438
vt 1.000000 0.023438
vt 0.511719 0.023438
vt 0.675781 0.023438
vt 0.187500 0.023438
vt 0.347656 0.023438
vt 0.347656 0.511719
vt 0.187500 0.429688
vt 0.187500 0.511719
vt 0.187500 0.429688
vt 0.023438 0.023438
vt 0.347656 1.000000
vt 0.187500 1.000000
vt 0.187500 0.917969
vt 0.347656 0.917969
vt 0.347656 0.511719
vt 0.187500 0.429688
vt 0.187500 0.511719
vt 0.187500 0.429688
vt 0.835938 1.000000
vt 0.675781 1.000000
vt 0.675781 0.917969
vt 0.835938 0.917969
vt 0.511719 1.000000
vt 0.511719 0.917969
vt 0.023438 1.000000
vt 0.023438 0.917969
vt 1.000000 1.000000
vt 1.000000 0.917969
vt 0.187500 0.511719
vt 0.187500 0.429688
vt 0.347656 0.511719
vt 0.187500 0.429688
vn 0.0000 -1.0000 0.0000
vn 0.0000 -0.9122 -0.4097
vn 0.2048 -0.9122 -0.3548
vn 0.0000 -0.6913 -0.7226
vn 0.0000 -0.3717 -0.9283
vn 0.4642 -0.3717 -0.8039
vn 0.3613 -0.6913 -0.6258
vn 0.0000 0.0000 -1.0000
vn 0.0000 0.3717 -0.9283
vn 0.4642 0.3717 -0.8039
vn 0.5000 0.0000 -0.8660
vn 0.0000 0.6913 -0.7226
vn 0.0000 0.9122 -0.4097
vn 0.2048 0.9122 -0.3548
vn 0.3613 0.6913 -0.6258
vn 0.0000 1.0000 0.0000
vn 0.3548 0.9122 -0.2048
vn 0.6258 0.6913 -0.3613
vn 0.6258 -0.6913 -0.3613
vn 0.3548 -0.9122 -0.2048
vn 0.8660 0.0000 -0.5000
vn 0.8039 -0.3717 -0.4642
vn 0.8039 0.3717 -0.4642
vn 0.7226 -0.6913 0.0000
vn 0.4097 -0.9122 0.0000
vn 1.0000 0.0000 0.0000
vn 0.9283 -0.3717 0.0000
vn 0.7226 0.6913 0.0000
vn 0.9283 0.3717 0.0000
vn 0.4097 0.9122 0.0000
vn 0.3548 0.9122 0.2048
vn 0.3548 -0.9122 0.2048
vn 0.8039 -0.3717 0.4642
vn 0.6258 -0.6913 0.3613
vn 0.8039 0.3717 0.4642
vn 0.8660 0.0000 0.5000
vn 0.6258 0.6913 0.3613
vn 0.4642 -0.3717 0.8039
vn 0.3613 -0.6913 0.6258
vn 0.4642 0.3717 0.8039
vn 0.5000 0.0000 0.8660
vn 0.2048 0.9122 0.3548
vn 0.3613 0.6913 0.6258
vn 0.2048 -0.9122 0.3548
vn 0.0000 -0.6913 0.7226
vn 0.0000 -0.9122 0.4097
vn 0.0000 0.0000 1.0000
vn 0.0000 -0.3717 0.9283
vn 0.0000 0.6913 0.7226
vn 0.0000 0.3717 0.9283
vn 0.0000 0.9122 0.4097
vn -0.5000 0.0000 0.8660
vn -0.4642 -0.3717 0.8039
vn -0.3613 0.6913 0.6258
vn -0.4642 0.3717 0.8039
vn -0.2048 0.9122 0.3548
vn -0.2048 -0.9122 0.3548
vn -0.3613 -0.6913 0.6258
vn -0.3548 -0.9122 0.2048
vn -0.8039 -0.3717 0.4642
vn -0.6258 -0.6913 0.3613
vn -0.8039 0.3717 0.4642
vn -0.8660 0.0000 0.5000
vn -0.3548 0.9122 0.2048
vn -0.6258 0.6913 0.3613
vn -0.9283 0.3717 0.0000
vn -1.0000 0.0000 0.0000
vn -0.4097 0.9122 0.0000
vn -0.7226 0.6913 0.0000
vn -0.7226 -0.6913 0.0000
vn -0.4097 -0.9122 0.0000
vn -0.9283 -0.3717 0.0000
vn -0.6258 -0.6913 -0.3613
vn -0.3548 -0.9122 -0.2048
vn -0.8660 0.0000 -0.5000
vn -0.8039 -0.3717 -0.4642
vn -0.6258 0.6913 -0.3613
vn -0.8039 0.3717 -0.4642
vn -0.3548 0.9122 -0.2048
vn -0.3613 0.6913 -0.6258
vn -0.4642 0.3717 -0.8039
vn -0.2048 0.9122 -0.3548
vn -0.2048 -0.9122 -0.3548
vn -0.4642 -0.3717 -0.8039
vn -0.3613 -0.6913 -0.6258
vn -0.5000 0.0000 -0.8660
usemtl default
s 1
f 76/1/1 4/2/2 11/3/3
f 3/4/4 2/5/5 9/6/6 10/7/7
f 86/8/8 85/9/9 7/10/10 8/11/11
f 1/12/12 84/13/13 5/14/14 6/15/15
f 4/16/2 3/4/4 10/7/7 11/17/3
f 2/5/5 86/8/8 8/11/11 9/6/6
f 85/9/9 1/12/12 6/15/15 7/10/10
f 84/18/13 12/19/16 5/20/14
f 6/15/15 5/14/14 13/21/17 14/22/18
f 11/17/3 10/7/7 18/23/19 19/24/20
f 9/6/6 8/11/11 16/25/21 17/26/22
f 7/10/10 6/15/15 14/22/18 15/27/23
f 5/28/14 12/19/16 13/29/17
f 76/1/1 11/30/3 19/31/20
f 10/7/7 9/6/6 17/26/22 18/23/19
f 8/11/11 7/10/10 15/27/23 16/25/21
f 19/24/20 18/23/19 25/32/24 26/33/25
f 17/26/22 16/25/21 23/34/26 24/35/27
f 15/27/23 14/22/18 21/36/28 22/37/29
f 13/38/17 12/19/16 20/39/30
f 76/1/1 19/40/20 26/41/25
f 18/23/19 17/26/22 24/35/27 25/32/24
f 16/25/21 15/27/23 22/37/29 23/34/26
f 14/22/18 13/21/17 20/42/30 21/36/28
f 20/43/30 12/19/16 27/44/31
f 76/1/1 26/45/25 33/46/32
f 25/32/24 24/35/27 31/47/33 32/48/34
f 23/34/26 22/37/29 29/49/35 30/50/36
f 21/36/28 20/42/30 27/51/31 28/52/37
f 26/33/25 25/32/24 32/48/34 33/53/32
f 24/35/27 23/34/26 30/50/36 31/47/33
f 22/37/29 21/36/28 28/52/37 29/49/35
f 32/48/34 31/47/33 38/54/38 39/55/39
f 30/50/36 29/49/35 36/56/40 37/57/41
f 28/52/37 27/51/31 34/58/42 35/59/43
f 33/53/32 32/48/34 39/55/39 40/60/44
f 31/47/33 30/50/36 37/57/41 38/54/38
f 29/49/35 28/52/37 35/59/43 36/56/40
f 27/61/31 12/19/16 34/62/42
f 76/1/1 33/63/32 40/64/44
f 40/60/44 39/55/39 46/65/45 47/66/46
f 38/54/38 37/57/41 44/67/47 45/68/48
f 36/56/40 35/59/43 42/69/49 43/70/50
f 34/71/42 12/19/16 41/72/51
f 76/1/1 40/73/44 47/74/46
f 39/55/39 38/54/38 45/68/48 46/65/45
f 37/57/41 36/56/40 43/70/50 44/67/47
f 35/59/43 34/58/42 41/75/51 42/69/49
f 45/68/48 44/67/47 51/76/52 52/77/53
f 43/70/50 42/69/49 49/78/54 50/79/55
f 41/80/51 12/19/16 48/81/56
f 76/1/1 47/82/46 54/83/57
f 46/65/45 45/68/48 52/77/53 53/84/58
f 44/67/47 43/70/50 50/79/55 51/76/52
f 42/69/49 41/75/51 48/85/56 49/78/54
f 47/66/46 46/65/45 53/84/58 54/86/57
f 76/1/1 54/87/57 61/88/59
f 53/84/58 52/77/53 59/89/60 60/90/61
f 51/76/52 50/79/55 57/91/62 58/92/63
f 49/78/54 48/85/56 55/93/64 56/94/65
f 54/86/57 53/84/58 60/90/61 61/95/59
f 52/77/53 51/76/52 58/92/63 59/89/60
f 50/79/55 49/78/54 56/94/65 57/91/62
f 48/96/56 12/19/16 55/97/64
f 58/92/63 57/91/62 64/98/66 65/99/67
f 56/94/65 55/93/64 62/100/68 63/101/69
f 61/95/59 60/90/61 67/102/70 68/103/71
f 59/89/60 58/92/63 65/99/67 66/104/72
f 57/91/62 56/94/65 63/101/69 64/98/66
f 55/105/64 12/19/16 62/106/68
f 76/1/1 61/107/59 68/108/71
f 60/90/61 59/89/60 66/104/72 67/102/70
f 68/103/71 67/102/70 74/109/73 75/110/74
f 66/104/72 65/99/67 72/111/75 73/112/76
f 64/98/66 63/101/69 70/113/77 71/114/78
f 62/115/68 12/19/16 69/116/79
f 76/1/1 68/117/71 75/118/74
f 67/102/70 66/104/72 73/112/76 74/109/73
f 65/99/67 64/98/66 71/114/78 72/111/75
f 63/101/69 62/100/68 69/119/79 70/113/77
f 71/120/78 70/121/77 78/122/80 79/123/81
f 69/124/79 12/19/16 77/125/82
f 76/1/1 75/126/74 83/127/83
f 74/128/73 73/129/76 81/130/84 82/131/85
f 72/132/75 71/120/78 79/123/81 80/133/86
f 70/121/77 69/134/79 77/135/82 78/122/80
f 75/136/74 74/128/73 82/131/85 83/137/83
f 73/129/76 72/132/75 80/133/86 81/130/84
f 76/1/1 83/138/83 4/139/2
f 82/131/85 81/130/84 2/5/5 3/4/4
f 80/133/86 79/123/81 85/9/9 86/8/8
f 78/122/80 77/135/82 84/13/13 1/12/12
f 83/137/83 82/131/85 3/4/4 4/16/2
f 81/130/84 80/133/86 86/8/8 2/5/5
f 79/123/81 78/122/80 1/12/12 85/9/9
f 77/140/82 12/19/16 84/141/13
