# Blender v2.79 (sub 0) OBJ File: ''
# www.blender.org
o Sphere
v 0.000000 0.951057 -0.309017
v 0.000000 0.587785 -0.809017
v 0.000000 -0.587785 -0.809017
v 0.000000 -0.809017 -0.587785
v 0.000000 -0.951057 -0.309017
v 0.154509 0.951057 -0.267617
v 0.293893 0.809017 -0.509037
v 0.404509 0.587785 -0.700629
v 0.475528 0.309017 -0.823639
v 0.500000 -0.000000 -0.866025
v 0.475528 -0.309017 -0.823639
v 0.404509 -0.587785 -0.700629
v 0.293893 -0.809017 -0.509037
v 0.154509 -0.951057 -0.267616
v 0.267617 0.951057 -0.154508
v 0.509037 0.809017 -0.293892
v 0.700630 0.587785 -0.404508
v 0.823639 0.309017 -0.475528
v 0.866026 -0.000000 -0.500000
v 0.823639 -0.309017 -0.475528
v 0.700630 -0.587785 -0.404508
v 0.509037 -0.809017 -0.293892
v 0.267617 -0.951057 -0.154508
v 0.309017 0.951057 0.000000
v 0.587786 0.809017 0.000000
v 0.809017 0.587785 0.000000
v 0.951057 0.309017 0.000000
v 1.000000 -0.000000 0.000000
v 0.951057 -0.309017 0.000000
v 0.809017 -0.587785 0.000000
v 0.587786 -0.809017 0.000000
v 0.309017 -0.951057 0.000000
v 0.267617 0.951057 0.154509
v 0.509037 0.809017 0.293893
v 0.700629 0.587785 0.404509
v 0.823639 0.309017 0.475529
v 0.866026 -0.000000 0.500000
v 0.823639 -0.309017 0.475529
v 0.700629 -0.587785 0.404509
v 0.509037 -0.809017 0.293893
v 0.267617 -0.951057 0.154509
v 0.154509 0.951057 0.267617
v 0.293893 0.809017 0.509038
v 0.404509 0.587785 0.700630
v 0.475528 0.309017 0.823640
v 0.500000 -0.000000 0.866026
v 0.475528 -0.309017 0.823640
v 0.404509 -0.587785 0.700630
v 0.293893 -0.809017 0.509038
v 0.154509 -0.951057 0.267617
v 0.000000 0.951057 0.309018
v -0.000000 0.809017 0.587786
v -0.000000 0.587785 0.809018
v -0.000000 0.309017 0.951057
v -0.000000 -0.000000 1.000000
v -0.000000 -0.309017 0.951057
v -0.000000 -0.587785 0.809018
v -0.000000 -0.809017 0.587786
v 0.000000 -0.951057 0.309017
v -0.154509 0.951057 0.267617
v -0.293893 0.809017 0.509038
v -0.404509 0.587785 0.700630
v -0.475528 0.309017 0.823640
v -0.500000 -0.000000 0.866026
v -0.475528 -0.309017 0.823640
v -0.404509 -0.587785 0.700630
v -0.293893 -0.809017 0.509038
v -0.154509 -0.951057 0.267617
v 0.000000 -1.000000 0.000000
v -0.000000 1.000000 0.000000
v -0.267617 0.951057 0.154509
v -0.509037 0.809017 0.293893
v -0.700630 0.587785 0.404509
v -0.823639 0.309017 0.475529
v -0.866026 -0.000000 0.500000
v -0.823639 -0.309017 0.475529
v -0.700630 -0.587785 0.404509
v -0.509037 -0.809017 0.293893
v -0.267617 -0.951057 0.154509
v -0.309017 0.951057 0.000000
v -0.587785 0.809017 0.000000
v -0.809017 0.587785 0.000000
v -0.951057 0.309017 0.000000
v -1.000000 -0.000000 0.000000
v -0.951057 -0.309017 0.000000
v -0.809017 -0.587785 0.000000
v -0.587786 -0.809017 0.000000
v -0.309017 -0.951057 0.000000
v -0.267617 0.951057 -0.154508
v -0.509037 0.809017 -0.293892
v -0.700629 0.587785 -0.404508
v -0.823639 0.309017 -0.475528
v -0.866025 -0.000000 -0.500000
v -0.823639 -0.309017 -0.475528
v -0.700629 -0.587785 -0.404508
v -0.509037 -0.809017 -0.293893
v -0.267617 -0.951057 -0.154508
v -0.154509 0.951057 -0.267616
v -0.293893 0.809017 -0.509037
v -0.404509 0.587785 -0.700629
v -0.475528 0.309017 -0.823639
v -0.500000 -0.000000 -0.866025
v -0.475528 -0.309017 -0.823639
v -0.404509 -0.587785 -0.700629
v -0.293893 -0.809017 -0.509037
v -0.154509 -0.951057 -0.267616
v 0.000000 0.809017 -0.587785
v -0.000000 0.309017 -0.951056
v 0.000000 -0.000000 -1.000000
v -0.000000 -0.309017 -0.951056
vn -0.4088 -0.5758 0.7081
vn 0.0000 -0.7967 0.6043
vn 0.0000 -0.5758 0.8176
vn 0.0000 1.0000 0.0000
vn -0.1661 0.9432 0.2877
vn 0.0000 0.9432 0.3322
vn -0.4088 0.5758 0.7081
vn 0.0000 0.3017 0.9534
vn 0.0000 0.5758 0.8176
vn 0.0000 -0.3017 0.9534
vn 0.0000 -0.9432 0.3322
vn -0.1661 -0.9432 0.2877
vn 0.0000 -1.0000 0.0000
vn -0.3021 0.7967 0.5233
vn 0.0000 0.7967 0.6043
vn 0.0000 0.0000 1.0000
vn -0.4767 -0.3017 0.8256
vn -0.4767 0.3017 0.8256
vn -0.5233 -0.7967 0.3021
vn -0.3021 -0.7967 0.5233
vn -0.2877 0.9432 0.1661
vn -0.8256 0.3017 0.4767
vn -0.8256 -0.3017 0.4767
vn -0.2877 -0.9432 0.1661
vn -0.7081 0.5758 0.4088
vn -0.8660 0.0000 0.5000
vn -0.5000 0.0000 0.8660
vn -0.9534 0.3017 0.0000
vn -0.8176 -0.5758 0.0000
vn -0.7081 -0.5758 0.4088
vn -0.3322 0.9432 0.0000
vn -0.8176 0.5758 0.0000
vn -0.9534 -0.3017 0.0000
vn -0.3322 -0.9432 0.0000
vn -0.6043 0.7967 0.0000
vn -0.5233 0.7967 0.3021
vn -0.6043 -0.7967 0.0000
vn -0.5233 -0.7967 -0.3021
vn -0.2877 0.9432 -0.1661
vn -0.8660 0.0000 -0.5000
vn -1.0000 0.0000 0.0000
vn -0.7081 0.5758 -0.4088
vn -0.7081 -0.5758 -0.4088
vn -0.2877 -0.9432 -0.1661
vn -0.5233 0.7967 -0.3021
vn -0.3021 0.7967 -0.5233
vn -0.4767 -0.3017 -0.8256
vn -0.8256 -0.3017 -0.4767
vn -0.3021 -0.7967 -0.5233
vn -0.4767 0.3017 -0.8256
vn -0.8256 0.3017 -0.4767
vn -0.1661 0.9432 -0.2877
vn -0.1661 -0.9432 -0.2877
vn 0.0000 -0.3017 -0.9534
vn -0.4088 -0.5758 -0.7081
vn 0.0000 -0.9432 -0.3322
vn 0.0000 0.7967 -0.6043
vn -0.4088 0.5758 -0.7081
vn 0.0000 0.0000 -1.0000
vn -0.5000 0.0000 -0.8660
vn 0.0000 -0.7967 -0.6043
vn 0.0000 0.9432 -0.3322
vn 0.0000 0.3017 -0.9534
vn 0.0000 -0.5758 -0.8176
vn 0.0000 0.5758 -0.8176
vn 0.4767 0.3017 -0.8256
vn 0.4767 -0.3017 -0.8256
vn 0.1661 -0.9432 -0.2877
vn 0.3021 0.7967 -0.5233
vn 0.3021 -0.7967 -0.5233
vn 0.1661 0.9432 -0.2877
vn 0.7081 -0.5758 -0.4088
vn 0.4088 -0.5758 -0.7081
vn 0.2877 0.9432 -0.1661
vn 0.4088 0.5758 -0.7081
vn 0.8256 0.3017 -0.4767
vn 0.8256 -0.3017 -0.4767
vn 0.2877 -0.9432 -0.1661
vn 0.5233 0.7967 -0.3021
vn 0.5000 0.0000 -0.8660
vn 0.3322 0.9432 0.0000
vn 0.9534 0.3017 0.0000
vn 0.8660 0.0000 -0.5000
vn 0.8176 -0.5758 0.0000
vn 0.5233 -0.7967 -0.3021
vn 0.7081 0.5758 -0.4088
vn 0.9534 -0.3017 0.0000
vn 0.3322 -0.9432 0.0000
vn 0.6043 0.7967 0.0000
vn 1.0000 0.0000 0.0000
vn 0.6043 -0.7967 0.0000
vn 0.8256 -0.3017 0.4767
vn 0.5233 -0.7967 0.3021
vn 0.2877 0.9432 0.1661
vn 0.8256 0.3017 0.4767
vn 0.7081 0.5758 0.4088
vn 0.8176 0.5758 0.0000
vn 0.2877 -0.9432 0.1661
vn 0.5233 0.7967 0.3021
vn 0.1661 -0.9432 0.2877
vn 0.4088 0.5758 0.7081
vn 0.5000 0.0000 0.8660
vn 0.8660 0.0000 0.5000
vn 0.3021 -0.7967 0.5233
vn 0.1661 0.9432 0.2877
vn 0.7081 -0.5758 0.4088
vn 0.4767 0.3017 0.8256
vn 0.4767 -0.3017 0.8256
vn 0.4088 -0.5758 0.7081
vn 0.3021 0.7967 0.5233
s 1
f 8//1 107//2 2//3
f 69//4 14//5 5//6
f 12//7 110//8 3//9
f 108//10 8//1 2//3
f 1//11 6//12 70//13
f 13//14 3//9 4//15
f 109//16 9//17 108//10
f 107//2 6//12 1//11
f 5//6 13//14 4//15
f 11//18 109//16 110//8
f 8//1 16//19 7//20
f 69//4 23//21 14//5
f 12//7 20//22 11//18
f 18//23 8//1 9//17
f 6//12 15//24 70//13
f 13//14 21//25 12//7
f 19//26 9//17 10//27
f 16//19 6//12 7//20
f 23//21 13//14 14//5
f 11//18 19//26 10//27
f 29//28 19//26 20//22
f 26//29 16//19 17//30
f 69//4 32//31 23//21
f 30//32 20//22 21//25
f 27//33 17//30 18//23
f 15//24 24//34 70//13
f 31//35 21//25 22//36
f 19//26 27//33 18//23
f 25//37 15//24 16//19
f 23//21 31//35 22//36
f 34//38 24//34 25//37
f 41//39 31//35 32//31
f 29//28 37//40 28//41
f 26//29 34//38 25//37
f 69//4 41//39 32//31
f 39//42 29//28 30//32
f 27//33 35//43 26//29
f 24//34 33//44 70//13
f 40//45 30//32 31//35
f 37//40 27//33 28//41
f 49//46 39//42 40//45
f 37//40 45//47 36//48
f 43//49 33//44 34//38
f 41//39 49//46 40//45
f 47//50 37//40 38//51
f 35//43 43//49 34//38
f 69//4 50//52 41//39
f 39//42 47//50 38//51
f 45//47 35//43 36//48
f 33//44 42//53 70//13
f 54//54 44//55 45//47
f 42//53 51//56 70//13
f 58//57 48//58 49//46
f 55//59 45//47 46//60
f 52//61 42//53 43//49
f 59//62 49//46 50//52
f 56//63 46//60 47//50
f 53//64 43//49 44//55
f 69//4 59//62 50//52
f 57//65 47//50 48//58
f 57//65 65//66 56//63
f 63//67 53//64 54//54
f 51//56 60//68 70//13
f 67//69 57//65 58//57
f 55//59 63//67 54//54
f 61//70 51//56 52//61
f 68//71 58//57 59//62
f 65//66 55//59 56//63
f 53//64 61//70 52//61
f 69//4 68//71 59//62
f 73//72 61//70 62//73
f 69//4 79//74 68//71
f 66//75 76//76 65//66
f 74//77 62//73 63//67
f 60//68 71//78 70//13
f 78//79 66//75 67//69
f 64//80 74//77 63//67
f 61//70 71//78 60//68
f 79//74 67//69 68//71
f 76//76 64//80 65//66
f 88//81 78//79 79//74
f 85//82 75//83 76//76
f 82//84 72//85 73//72
f 69//4 88//81 79//74
f 77//86 85//82 76//76
f 83//87 73//72 74//77
f 71//78 80//88 70//13
f 87//89 77//86 78//79
f 84//90 74//77 75//83
f 81//91 71//78 72//85
f 84//90 92//92 83//87
f 90//93 80//88 81//91
f 97//94 87//89 88//81
f 94//95 84//90 85//82
f 82//84 90//93 81//91
f 69//4 97//94 88//81
f 95//96 85//82 86//97
f 92//92 82//84 83//87
f 80//88 89//98 70//13
f 96//99 86//97 87//89
f 89//98 98//100 70//13
f 96//99 104//101 95//96
f 102//102 92//92 93//103
f 99//104 89//98 90//93
f 106//105 96//99 97//94
f 94//95 102//102 93//103
f 91//106 99//104 90//93
f 69//4 106//105 97//94
f 95//96 103//107 94//95
f 101//108 91//106 92//92
f 108//10 100//109 101//108
f 98//100 1//11 70//13
f 4//15 104//101 105//110
f 102//102 108//10 101//108
f 99//104 1//11 98//100
f 5//6 105//110 106//105
f 110//8 102//102 103//107
f 2//3 99//104 100//109
f 69//4 5//6 106//105
f 3//9 103//107 104//101
f 8//1 7//20 107//2
f 12//7 11//18 110//8
f 108//10 9//17 8//1
f 13//14 12//7 3//9
f 109//16 10//27 9//17
f 107//2 7//20 6//12
f 5//6 14//5 13//14
f 11//18 10//27 109//16
f 8//1 17//30 16//19
f 12//7 21//25 20//22
f 18//23 17//30 8//1
f 13//14 22//36 21//25
f 19//26 18//23 9//17
f 16//19 15//24 6//12
f 23//21 22//36 13//14
f 11//18 20//22 19//26
f 29//28 28//41 19//26
f 26//29 25//37 16//19
f 30//32 29//28 20//22
f 27//33 26//29 17//30
f 31//35 30//32 21//25
f 19//26 28//41 27//33
f 25//37 24//34 15//24
f 23//21 32//31 31//35
f 34//38 33//44 24//34
f 41//39 40//45 31//35
f 29//28 38//51 37//40
f 26//29 35//43 34//38
f 39//42 38//51 29//28
f 27//33 36//48 35//43
f 40//45 39//42 30//32
f 37//40 36//48 27//33
f 49//46 48//58 39//42
f 37//40 46//60 45//47
f 43//49 42//53 33//44
f 41//39 50//52 49//46
f 47//50 46//60 37//40
f 35//43 44//55 43//49
f 39//42 48//58 47//50
f 45//47 44//55 35//43
f 54//54 53//64 44//55
f 58//57 57//65 48//58
f 55//59 54//54 45//47
f 52//61 51//56 42//53
f 59//62 58//57 49//46
f 56//63 55//59 46//60
f 53//64 52//61 43//49
f 57//65 56//63 47//50
f 57//65 66//75 65//66
f 63//67 62//73 53//64
f 67//69 66//75 57//65
f 55//59 64//80 63//67
f 61//70 60//68 51//56
f 68//71 67//69 58//57
f 65//66 64//80 55//59
f 53//64 62//73 61//70
f 73//72 72//85 61//70
f 66//75 77//86 76//76
f 74//77 73//72 62//73
f 78//79 77//86 66//75
f 64//80 75//83 74//77
f 61//70 72//85 71//78
f 79//74 78//79 67//69
f 76//76 75//83 64//80
f 88//81 87//89 78//79
f 85//82 84//90 75//83
f 82//84 81//91 72//85
f 77//86 86//97 85//82
f 83//87 82//84 73//72
f 87//89 86//97 77//86
f 84//90 83//87 74//77
f 81//91 80//88 71//78
f 84//90 93//103 92//92
f 90//93 89//98 80//88
f 97//94 96//99 87//89
f 94//95 93//103 84//90
f 82//84 91//106 90//93
f 95//96 94//95 85//82
f 92//92 91//106 82//84
f 96//99 95//96 86//97
f 96//99 105//110 104//101
f 102//102 101//108 92//92
f 99//104 98//100 89//98
f 106//105 105//110 96//99
f 94//95 103//107 102//102
f 91//106 100//109 99//104
f 95//96 104//101 103//107
f 101//108 100//109 91//106
f 108//10 2//3 100//109
f 4//15 3//9 104//101
f 102//102 109//16 108//10
f 99//104 107//2 1//11
f 5//6 4//15 105//110
f 110//8 109//16 102//102
f 2//3 107//2 99//104
f 3//9 110//8 103//107
